<?xml version="1.0" encoding="UTF-8" standalone="no"?>
<!DOCTYPE svg PUBLIC "-//W3C//DTD SVG 1.1//EN"
 "http://www.w3.org/Graphics/SVG/1.1/DTD/svg11.dtd">
<!-- Generated by graphviz version 2.49.3 (20211104.1129)
 -->
<!-- Title: snakemake_dag Pages: 1 -->
<svg width="327pt" height="404pt"
 viewBox="0.00 0.00 326.50 404.00" xmlns="http://www.w3.org/2000/svg" xmlns:xlink="http://www.w3.org/1999/xlink">
<g id="graph0" class="graph" transform="scale(1 1) rotate(0) translate(4 400)">
<title>snakemake_dag</title>
<polygon fill="white" stroke="transparent" points="-4,4 -4,-400 322.5,-400 322.5,4 -4,4"/>
<!-- 0 -->
<g id="node1" class="node">
<title>0</title>
<path fill="none" stroke="#97d856" stroke-width="2" d="M192.5,-36C192.5,-36 121.5,-36 121.5,-36 115.5,-36 109.5,-30 109.5,-24 109.5,-24 109.5,-12 109.5,-12 109.5,-6 115.5,0 121.5,0 121.5,0 192.5,0 192.5,0 198.5,0 204.5,-6 204.5,-12 204.5,-12 204.5,-24 204.5,-24 204.5,-30 198.5,-36 192.5,-36"/>
<text text-anchor="middle" x="157" y="-15.5" font-family="sans" font-size="10.00">generate_report</text>
</g>
<!-- 1 -->
<g id="node2" class="node">
<title>1</title>
<path fill="none" stroke="#d89556" stroke-width="2" d="M136,-108C136,-108 12,-108 12,-108 6,-108 0,-102 0,-96 0,-96 0,-84 0,-84 0,-78 6,-72 12,-72 12,-72 136,-72 136,-72 142,-72 148,-78 148,-84 148,-84 148,-96 148,-96 148,-102 142,-108 136,-108"/>
<text text-anchor="middle" x="74" y="-87.5" font-family="sans" font-size="10.00">integrate_classifier_results</text>
</g>
<!-- 1&#45;&gt;0 -->
<g id="edge1" class="edge">
<title>1&#45;&gt;0</title>
<path fill="none" stroke="grey" stroke-width="2" d="M94.52,-71.7C104.87,-62.97 117.59,-52.24 128.84,-42.75"/>
<polygon fill="grey" stroke="grey" stroke-width="2" points="131.33,-45.23 136.72,-36.1 126.82,-39.88 131.33,-45.23"/>
</g>
<!-- 2 -->
<g id="node3" class="node">
<title>2</title>
<path fill="none" stroke="#569ad8" stroke-width="2" d="M103,-252C103,-252 43,-252 43,-252 37,-252 31,-246 31,-240 31,-240 31,-228 31,-228 31,-222 37,-216 43,-216 43,-216 103,-216 103,-216 109,-216 115,-222 115,-228 115,-228 115,-240 115,-240 115,-246 109,-252 103,-252"/>
<text text-anchor="middle" x="73" y="-231.5" font-family="sans" font-size="10.00">run_chromvar</text>
</g>
<!-- 2&#45;&gt;1 -->
<g id="edge3" class="edge">
<title>2&#45;&gt;1</title>
<path fill="none" stroke="grey" stroke-width="2" d="M71.7,-215.94C70.51,-198.02 69.06,-169.03 70,-144 70.31,-135.67 70.91,-126.61 71.54,-118.38"/>
<polygon fill="grey" stroke="grey" stroke-width="2" points="75.05,-118.42 72.38,-108.17 68.07,-117.85 75.05,-118.42"/>
</g>
<!-- 5 -->
<g id="node6" class="node">
<title>5</title>
<path fill="none" stroke="#d85656" stroke-width="2" d="M148.5,-180C148.5,-180 91.5,-180 91.5,-180 85.5,-180 79.5,-174 79.5,-168 79.5,-168 79.5,-156 79.5,-156 79.5,-150 85.5,-144 91.5,-144 91.5,-144 148.5,-144 148.5,-144 154.5,-144 160.5,-150 160.5,-156 160.5,-156 160.5,-168 160.5,-168 160.5,-174 154.5,-180 148.5,-180"/>
<text text-anchor="middle" x="120" y="-159.5" font-family="sans" font-size="10.00">run_classifier</text>
</g>
<!-- 2&#45;&gt;5 -->
<g id="edge7" class="edge">
<title>2&#45;&gt;5</title>
<path fill="none" stroke="grey" stroke-width="2" d="M84.62,-215.7C90.14,-207.47 96.85,-197.48 102.93,-188.42"/>
<polygon fill="grey" stroke="grey" stroke-width="2" points="105.85,-190.36 108.52,-180.1 100.04,-186.46 105.85,-190.36"/>
</g>
<!-- 3 -->
<g id="node4" class="node">
<title>3</title>
<path fill="none" stroke="#56d8d8" stroke-width="2" d="M119.5,-324C119.5,-324 26.5,-324 26.5,-324 20.5,-324 14.5,-318 14.5,-312 14.5,-312 14.5,-300 14.5,-300 14.5,-294 20.5,-288 26.5,-288 26.5,-288 119.5,-288 119.5,-288 125.5,-288 131.5,-294 131.5,-300 131.5,-300 131.5,-312 131.5,-312 131.5,-318 125.5,-324 119.5,-324"/>
<text text-anchor="middle" x="73" y="-303.5" font-family="sans" font-size="10.00">calculate_reductions</text>
</g>
<!-- 3&#45;&gt;2 -->
<g id="edge5" class="edge">
<title>3&#45;&gt;2</title>
<path fill="none" stroke="grey" stroke-width="2" d="M73,-287.7C73,-279.98 73,-270.71 73,-262.11"/>
<polygon fill="grey" stroke="grey" stroke-width="2" points="76.5,-262.1 73,-252.1 69.5,-262.1 76.5,-262.1"/>
</g>
<!-- 4 -->
<g id="node5" class="node">
<title>4</title>
<path fill="none" stroke="#59d856" stroke-width="2" stroke-dasharray="5,2" d="M123.5,-396C123.5,-396 22.5,-396 22.5,-396 16.5,-396 10.5,-390 10.5,-384 10.5,-384 10.5,-372 10.5,-372 10.5,-366 16.5,-360 22.5,-360 22.5,-360 123.5,-360 123.5,-360 129.5,-360 135.5,-366 135.5,-372 135.5,-372 135.5,-384 135.5,-384 135.5,-390 129.5,-396 123.5,-396"/>
<text text-anchor="middle" x="73" y="-381" font-family="sans" font-size="10.00">make_assay</text>
<text text-anchor="middle" x="73" y="-370" font-family="sans" font-size="10.00">patient_id: D48__P221</text>
</g>
<!-- 4&#45;&gt;3 -->
<g id="edge6" class="edge">
<title>4&#45;&gt;3</title>
<path fill="none" stroke="grey" stroke-width="2" d="M73,-359.7C73,-351.98 73,-342.71 73,-334.11"/>
<polygon fill="grey" stroke="grey" stroke-width="2" points="76.5,-334.1 73,-324.1 69.5,-334.1 76.5,-334.1"/>
</g>
<!-- 5&#45;&gt;1 -->
<g id="edge4" class="edge">
<title>5&#45;&gt;1</title>
<path fill="none" stroke="grey" stroke-width="2" d="M108.63,-143.7C103.28,-135.56 96.8,-125.69 90.89,-116.7"/>
<polygon fill="grey" stroke="grey" stroke-width="2" points="93.66,-114.54 85.24,-108.1 87.81,-118.38 93.66,-114.54"/>
</g>
<!-- 6 -->
<g id="node7" class="node">
<title>6</title>
<path fill="none" stroke="#d89556" stroke-width="2" d="M302,-108C302,-108 178,-108 178,-108 172,-108 166,-102 166,-96 166,-96 166,-84 166,-84 166,-78 172,-72 178,-72 178,-72 302,-72 302,-72 308,-72 314,-78 314,-84 314,-84 314,-96 314,-96 314,-102 308,-108 302,-108"/>
<text text-anchor="middle" x="240" y="-87.5" font-family="sans" font-size="10.00">integrate_classifier_results</text>
</g>
<!-- 6&#45;&gt;0 -->
<g id="edge2" class="edge">
<title>6&#45;&gt;0</title>
<path fill="none" stroke="grey" stroke-width="2" d="M219.48,-71.7C209.13,-62.97 196.41,-52.24 185.16,-42.75"/>
<polygon fill="grey" stroke="grey" stroke-width="2" points="187.18,-39.88 177.28,-36.1 182.67,-45.23 187.18,-39.88"/>
</g>
<!-- 7 -->
<g id="node8" class="node">
<title>7</title>
<path fill="none" stroke="#569ad8" stroke-width="2" d="M258,-252C258,-252 198,-252 198,-252 192,-252 186,-246 186,-240 186,-240 186,-228 186,-228 186,-222 192,-216 198,-216 198,-216 258,-216 258,-216 264,-216 270,-222 270,-228 270,-228 270,-240 270,-240 270,-246 264,-252 258,-252"/>
<text text-anchor="middle" x="228" y="-231.5" font-family="sans" font-size="10.00">run_chromvar</text>
</g>
<!-- 7&#45;&gt;6 -->
<g id="edge8" class="edge">
<title>7&#45;&gt;6</title>
<path fill="none" stroke="grey" stroke-width="2" d="M227.21,-215.88C226.62,-197.92 226.3,-168.89 229,-144 229.93,-135.46 231.59,-126.26 233.35,-117.96"/>
<polygon fill="grey" stroke="grey" stroke-width="2" points="236.8,-118.58 235.59,-108.05 229.97,-117.04 236.8,-118.58"/>
</g>
<!-- 10 -->
<g id="node11" class="node">
<title>10</title>
<path fill="none" stroke="#d85656" stroke-width="2" d="M306.5,-180C306.5,-180 249.5,-180 249.5,-180 243.5,-180 237.5,-174 237.5,-168 237.5,-168 237.5,-156 237.5,-156 237.5,-150 243.5,-144 249.5,-144 249.5,-144 306.5,-144 306.5,-144 312.5,-144 318.5,-150 318.5,-156 318.5,-156 318.5,-168 318.5,-168 318.5,-174 312.5,-180 306.5,-180"/>
<text text-anchor="middle" x="278" y="-159.5" font-family="sans" font-size="10.00">run_classifier</text>
</g>
<!-- 7&#45;&gt;10 -->
<g id="edge12" class="edge">
<title>7&#45;&gt;10</title>
<path fill="none" stroke="grey" stroke-width="2" d="M240.36,-215.7C246.23,-207.47 253.37,-197.48 259.84,-188.42"/>
<polygon fill="grey" stroke="grey" stroke-width="2" points="262.82,-190.28 265.78,-180.1 257.12,-186.21 262.82,-190.28"/>
</g>
<!-- 8 -->
<g id="node9" class="node">
<title>8</title>
<path fill="none" stroke="#56d8d8" stroke-width="2" d="M274.5,-324C274.5,-324 181.5,-324 181.5,-324 175.5,-324 169.5,-318 169.5,-312 169.5,-312 169.5,-300 169.5,-300 169.5,-294 175.5,-288 181.5,-288 181.5,-288 274.5,-288 274.5,-288 280.5,-288 286.5,-294 286.5,-300 286.5,-300 286.5,-312 286.5,-312 286.5,-318 280.5,-324 274.5,-324"/>
<text text-anchor="middle" x="228" y="-303.5" font-family="sans" font-size="10.00">calculate_reductions</text>
</g>
<!-- 8&#45;&gt;7 -->
<g id="edge10" class="edge">
<title>8&#45;&gt;7</title>
<path fill="none" stroke="grey" stroke-width="2" d="M228,-287.7C228,-279.98 228,-270.71 228,-262.11"/>
<polygon fill="grey" stroke="grey" stroke-width="2" points="231.5,-262.1 228,-252.1 224.5,-262.1 231.5,-262.1"/>
</g>
<!-- 9 -->
<g id="node10" class="node">
<title>9</title>
<path fill="none" stroke="#59d856" stroke-width="2" stroke-dasharray="5,2" d="M279,-396C279,-396 177,-396 177,-396 171,-396 165,-390 165,-384 165,-384 165,-372 165,-372 165,-366 171,-360 177,-360 177,-360 279,-360 279,-360 285,-360 291,-366 291,-372 291,-372 291,-384 291,-384 291,-390 285,-396 279,-396"/>
<text text-anchor="middle" x="228" y="-381" font-family="sans" font-size="10.00">make_assay</text>
<text text-anchor="middle" x="228" y="-370" font-family="sans" font-size="10.00">patient_id: D48__R814</text>
</g>
<!-- 9&#45;&gt;8 -->
<g id="edge11" class="edge">
<title>9&#45;&gt;8</title>
<path fill="none" stroke="grey" stroke-width="2" d="M228,-359.7C228,-351.98 228,-342.71 228,-334.11"/>
<polygon fill="grey" stroke="grey" stroke-width="2" points="231.5,-334.1 228,-324.1 224.5,-334.1 231.5,-334.1"/>
</g>
<!-- 10&#45;&gt;6 -->
<g id="edge9" class="edge">
<title>10&#45;&gt;6</title>
<path fill="none" stroke="grey" stroke-width="2" d="M268.61,-143.7C264.24,-135.64 258.94,-125.89 254.1,-116.98"/>
<polygon fill="grey" stroke="grey" stroke-width="2" points="257.13,-115.22 249.29,-108.1 250.98,-118.56 257.13,-115.22"/>
</g>
</g>
</svg>
