<?xml version="1.0" encoding="UTF-8" standalone="no"?>
<!DOCTYPE svg PUBLIC "-//W3C//DTD SVG 1.1//EN"
 "http://www.w3.org/Graphics/SVG/1.1/DTD/svg11.dtd">
<!-- Generated by graphviz version 2.49.3 (20211104.1129)
 -->
<!-- Title: snakemake_dag Pages: 1 -->
<svg width="158pt" height="260pt"
 viewBox="0.00 0.00 157.50 260.00" xmlns="http://www.w3.org/2000/svg" xmlns:xlink="http://www.w3.org/1999/xlink">
<g id="graph0" class="graph" transform="scale(1 1) rotate(0) translate(4 256)">
<title>snakemake_dag</title>
<polygon fill="white" stroke="transparent" points="-4,4 -4,-256 153.5,-256 153.5,4 -4,4"/>
<!-- 0 -->
<g id="node1" class="node">
<title>0</title>
<path fill="none" stroke="#56d88a" stroke-width="2" d="M136,-36C136,-36 12,-36 12,-36 6,-36 0,-30 0,-24 0,-24 0,-12 0,-12 0,-6 6,0 12,0 12,0 136,0 136,0 142,0 148,-6 148,-12 148,-12 148,-24 148,-24 148,-30 142,-36 136,-36"/>
<text text-anchor="middle" x="74" y="-15.5" font-family="sans" font-size="10.00">integrate_classifier_results</text>
</g>
<!-- 1 -->
<g id="node2" class="node">
<title>1</title>
<path fill="none" stroke="#d85656" stroke-width="2" d="M104,-180C104,-180 44,-180 44,-180 38,-180 32,-174 32,-168 32,-168 32,-156 32,-156 32,-150 38,-144 44,-144 44,-144 104,-144 104,-144 110,-144 116,-150 116,-156 116,-156 116,-168 116,-168 116,-174 110,-180 104,-180"/>
<text text-anchor="middle" x="74" y="-159.5" font-family="sans" font-size="10.00">run_chromvar</text>
</g>
<!-- 1&#45;&gt;0 -->
<g id="edge1" class="edge">
<title>1&#45;&gt;0</title>
<path fill="none" stroke="grey" stroke-width="2" d="M67.76,-143.59C64.43,-133.37 60.68,-120.12 59,-108 56.8,-92.15 56.8,-87.85 59,-72 60.18,-63.48 62.39,-54.39 64.75,-46.2"/>
<polygon fill="grey" stroke="grey" stroke-width="2" points="68.17,-46.99 67.76,-36.41 61.48,-44.94 68.17,-46.99"/>
</g>
<!-- 3 -->
<g id="node4" class="node">
<title>3</title>
<path fill="none" stroke="#56c1d8" stroke-width="2" d="M137.5,-108C137.5,-108 80.5,-108 80.5,-108 74.5,-108 68.5,-102 68.5,-96 68.5,-96 68.5,-84 68.5,-84 68.5,-78 74.5,-72 80.5,-72 80.5,-72 137.5,-72 137.5,-72 143.5,-72 149.5,-78 149.5,-84 149.5,-84 149.5,-96 149.5,-96 149.5,-102 143.5,-108 137.5,-108"/>
<text text-anchor="middle" x="109" y="-87.5" font-family="sans" font-size="10.00">run_classifier</text>
</g>
<!-- 1&#45;&gt;3 -->
<g id="edge4" class="edge">
<title>1&#45;&gt;3</title>
<path fill="none" stroke="grey" stroke-width="2" d="M82.65,-143.7C86.64,-135.73 91.45,-126.1 95.87,-117.26"/>
<polygon fill="grey" stroke="grey" stroke-width="2" points="99.11,-118.61 100.45,-108.1 92.85,-115.48 99.11,-118.61"/>
</g>
<!-- 2 -->
<g id="node3" class="node">
<title>2</title>
<path fill="none" stroke="#d8bc56" stroke-width="2" stroke-dasharray="5,2" d="M124.5,-252C124.5,-252 23.5,-252 23.5,-252 17.5,-252 11.5,-246 11.5,-240 11.5,-240 11.5,-228 11.5,-228 11.5,-222 17.5,-216 23.5,-216 23.5,-216 124.5,-216 124.5,-216 130.5,-216 136.5,-222 136.5,-228 136.5,-228 136.5,-240 136.5,-240 136.5,-246 130.5,-252 124.5,-252"/>
<text text-anchor="middle" x="74" y="-237" font-family="sans" font-size="10.00">make_assay</text>
<text text-anchor="middle" x="74" y="-226" font-family="sans" font-size="10.00">patient_id: D48__P221</text>
</g>
<!-- 2&#45;&gt;1 -->
<g id="edge3" class="edge">
<title>2&#45;&gt;1</title>
<path fill="none" stroke="grey" stroke-width="2" d="M74,-215.7C74,-207.98 74,-198.71 74,-190.11"/>
<polygon fill="grey" stroke="grey" stroke-width="2" points="77.5,-190.1 74,-180.1 70.5,-190.1 77.5,-190.1"/>
</g>
<!-- 3&#45;&gt;0 -->
<g id="edge2" class="edge">
<title>3&#45;&gt;0</title>
<path fill="none" stroke="grey" stroke-width="2" d="M100.35,-71.7C96.36,-63.73 91.55,-54.1 87.13,-45.26"/>
<polygon fill="grey" stroke="grey" stroke-width="2" points="90.15,-43.48 82.55,-36.1 83.89,-46.61 90.15,-43.48"/>
</g>
</g>
</svg>
